<?xml version="1.0" encoding="UTF-8"?>
<svg width="176px" height="90px" viewBox="0 0 176 90" version="1.1" xmlns="http://www.w3.org/2000/svg" xmlns:xlink="http://www.w3.org/1999/xlink">
    <!-- Generator: Sketch 53.2 (72643) - https://sketchapp.com -->
    <title>aar_logo</title>
    <desc>Created with Sketch.</desc>
    <g id="Page-1" stroke="none" stroke-width="1" fill="none" fill-rule="evenodd">
        <g id="BRAND-BOARD" transform="translate(-320.000000, -167.000000)">
            <g id="aar_logo" transform="translate(320.000000, 167.000000)">
                <path d="M41.1532258,65.7328573 L20.703629,65.7328573 L15.75,89 L0,89 L20.8306452,0 L40.5181452,0 L63,89 L46.3608871,89 L41.1532258,65.7328573 Z M24.0358423,50.5369312 L37.8806004,50.5369312 L30.640681,23.074074 L24.0358423,50.5369312 Z" id="Combined-Shape" fill="#FFFFFF" fill-rule="nonzero"></path>
                <polygon id="Path" points="99.1532255 65.7328573 78.7036288 65.7328573 73.75 89 58 89 78.8306451 0 98.5181451 0 121 89 104.360887 89"></polygon>
                <polygon id="Path" fill="#FFFFFF" fill-rule="nonzero" points="82 51 96 51 88.678899 23"></polygon>
                <path d="M153.24503,64.2071427 L134.685111,64.2071427 L134.685111,89 L120.500724,89 L98,0 L150.829698,0 C156.423126,0 161.084247,1.37736718 164.813199,4.13214286 C168.542152,6.88691855 171.317637,10.5528343 173.139738,15.13 C174.96184,19.7071657 175.872877,24.7504486 175.872877,30.26 C175.872877,34.4133541 175.703382,38.015699 175.364386,41.0671429 C175.025391,44.1185867 174.156727,47.2971263 172.75837,50.6028571 C171.360013,53.908588 169.135387,56.875225 166.084427,59.5028573 L176,89 L161.762253,89 L153.24503,64.2071427 Z M147.524507,50.8571429 C151.677204,50.8571429 154.749306,49.7764394 156.740905,47.615 C158.732505,45.4535606 159.961346,42.9742997 160.427465,40.1771429 C160.893584,37.379986 161.12664,34.0743048 161.12664,30.26 C161.12664,25.7675966 160.491033,22.355964 159.219799,20.025 C157.948565,17.694036 156.168865,16.1259564 153.880644,15.3207143 C151.592423,14.5154722 148.626256,14.1128571 144.982053,14.1128571 L134.685111,14.1128571 L134.685111,50.8571429 L147.524507,50.8571429 Z" id="Combined-Shape" fill="#FFFFFF" fill-rule="nonzero"></path>
                <polygon id="Path-2" fill="#FFFFFF" fill-rule="nonzero" points="74 90 105 90 99.7261411 66 79.0165977 66"></polygon>
            </g>
        </g>
    </g>
</svg>