<?xml version="1.0" encoding="UTF-8"?>
<svg width="1440px" height="1024px" viewBox="0 0 1440 1024" version="1.1" xmlns="http://www.w3.org/2000/svg" xmlns:xlink="http://www.w3.org/1999/xlink">
    <!-- Generator: Sketch 53.2 (72643) - https://sketchapp.com -->
    <title>hexGrid_black</title>
    <desc>Created with Sketch.</desc>
    <defs>
        <path d="M451.535553,474 L538.138093,524.25 L538.138093,624.75 L451.535553,675 L364.933013,624.75 L364.933013,524.25 L451.535553,474 Z M269.035553,474 L356.071106,524.25 L356.071106,624.75 L269.035553,675 L182,624.75 L182,524.25 L269.035553,474 Z M87.0355531,474 L174.071106,524.25 L174.071106,624.75 L87.0355531,675 L4.4408921e-13,624.75 L3.89022148e-13,524.25 L87.0355531,474 Z M634.035553,474 L721.071106,524.25 L721.071106,624.75 L634.035553,675 L547,624.75 L547,524.25 L634.035553,474 Z M816.035553,474 L903.071106,524.25 L903.071106,624.75 L816.035553,675 L729,624.75 L729,524.25 L816.035553,474 Z M998.035553,474 L1085.07111,524.25 L1085.07111,624.75 L998.035553,675 L911,624.75 L911,524.25 L998.035553,474 Z M1180.53555,474 L1267.13809,524.25 L1267.13809,624.75 L1180.53555,675 L1093.93301,624.75 L1093.93301,524.25 L1180.53555,474 Z M1363.03555,474 L1450.07111,524.25 L1450.07111,624.75 L1363.03555,675 L1276,624.75 L1276,524.25 L1363.03555,474 Z M1545.03555,474 L1632.07111,524.25 L1632.07111,624.75 L1545.03555,675 L1458,624.75 L1458,524.25 L1545.03555,474 Z M451.535553,158 L538.138093,208.25 L538.138093,308.75 L451.535553,359 L364.933013,308.75 L364.933013,208.25 L451.535553,158 Z M269.035553,158 L356.071106,208.25 L356.071106,308.75 L269.035553,359 L182,308.75 L182,208.25 L269.035553,158 Z M87.0355531,158 L174.071106,208.25 L174.071106,308.75 L87.0355531,359 L4.4408921e-13,308.75 L3.89022148e-13,208.25 L87.0355531,158 Z M634.035553,158 L721.071106,208.25 L721.071106,308.75 L634.035553,359 L547,308.75 L547,208.25 L634.035553,158 Z M816.035553,158 L903.071106,208.25 L903.071106,308.75 L816.035553,359 L729,308.75 L729,208.25 L816.035553,158 Z M998.035553,158 L1085.07111,208.25 L1085.07111,308.75 L998.035553,359 L911,308.75 L911,208.25 L998.035553,158 Z M1180.53555,158 L1267.13809,208.25 L1267.13809,308.75 L1180.53555,359 L1093.93301,308.75 L1093.93301,208.25 L1180.53555,158 Z M1363.03555,158 L1450.07111,208.25 L1450.07111,308.75 L1363.03555,359 L1276,308.75 L1276,208.25 L1363.03555,158 Z M360.535553,316 L447.138093,366.25 L447.138093,466.75 L360.535553,517 L273.933013,466.75 L273.933013,366.25 L360.535553,316 Z M178.035553,316 L265.071106,366.25 L265.071106,466.75 L178.035553,517 L91,466.75 L91,366.25 L178.035553,316 Z M543.035553,316 L630.071106,366.25 L630.071106,466.75 L543.035553,517 L456,466.75 L456,366.25 L543.035553,316 Z M725.035553,316 L812.071106,366.25 L812.071106,466.75 L725.035553,517 L638,466.75 L638,366.25 L725.035553,316 Z M907.035553,316 L994.071106,366.25 L994.071106,466.75 L907.035553,517 L820,466.75 L820,366.25 L907.035553,316 Z M1089.53555,316 L1176.13809,366.25 L1176.13809,466.75 L1089.53555,517 L1002.93301,466.75 L1002.93301,366.25 L1089.53555,316 Z M1272.03555,316 L1359.07111,366.25 L1359.07111,466.75 L1272.03555,517 L1185,466.75 L1185,366.25 L1272.03555,316 Z M1454.03555,316 L1541.07111,366.25 L1541.07111,466.75 L1454.03555,517 L1367,466.75 L1367,366.25 L1454.03555,316 Z M360.535553,632 L447.138093,682.25 L447.138093,782.75 L360.535553,833 L273.933013,782.75 L273.933013,682.25 L360.535553,632 Z M178.035553,632 L265.071106,682.25 L265.071106,782.75 L178.035553,833 L91,782.75 L91,682.25 L178.035553,632 Z M543.035553,632 L630.071106,682.25 L630.071106,782.75 L543.035553,833 L456,782.75 L456,682.25 L543.035553,632 Z M725.035553,632 L812.071106,682.25 L812.071106,782.75 L725.035553,833 L638,782.75 L638,682.25 L725.035553,632 Z M907.035553,632 L994.071106,682.25 L994.071106,782.75 L907.035553,833 L820,782.75 L820,682.25 L907.035553,632 Z M1089.53555,632 L1176.13809,682.25 L1176.13809,782.75 L1089.53555,833 L1002.93301,782.75 L1002.93301,682.25 L1089.53555,632 Z M1272.03555,632 L1359.07111,682.25 L1359.07111,782.75 L1272.03555,833 L1185,782.75 L1185,682.25 L1272.03555,632 Z M1454.03555,632 L1541.07111,682.25 L1541.07111,782.75 L1454.03555,833 L1367,782.75 L1367,682.25 L1454.03555,632 Z M451.535553,790 L538.138093,840.25 L538.138093,940.75 L451.535553,991 L364.933013,940.75 L364.933013,840.25 L451.535553,790 Z M269.035553,790 L356.071106,840.25 L356.071106,940.75 L269.035553,991 L182,940.75 L182,840.25 L269.035553,790 Z M87.0355531,790 L174.071106,840.25 L174.071106,940.75 L87.0355531,991 L4.4408921e-13,940.75 L3.89022148e-13,840.25 L87.0355531,790 Z M634.035553,790 L721.071106,840.25 L721.071106,940.75 L634.035553,991 L547,940.75 L547,840.25 L634.035553,790 Z M816.035553,790 L903.071106,840.25 L903.071106,940.75 L816.035553,991 L729,940.75 L729,840.25 L816.035553,790 Z M998.035553,790 L1085.07111,840.25 L1085.07111,940.75 L998.035553,991 L911,940.75 L911,840.25 L998.035553,790 Z M1180.53555,790 L1267.13809,840.25 L1267.13809,940.75 L1180.53555,991 L1093.93301,940.75 L1093.93301,840.25 L1180.53555,790 Z M1363.03555,790 L1450.07111,840.25 L1450.07111,940.75 L1363.03555,991 L1276,940.75 L1276,840.25 L1363.03555,790 Z M360.535553,948 L447.138093,998.25 L447.138093,1098.75 L360.535553,1149 L273.933013,1098.75 L273.933013,998.25 L360.535553,948 Z M178.035553,948 L265.071106,998.25 L265.071106,1098.75 L178.035553,1149 L91,1098.75 L91,998.25 L178.035553,948 Z M543.035553,948 L630.071106,998.25 L630.071106,1098.75 L543.035553,1149 L456,1098.75 L456,998.25 L543.035553,948 Z M725.035553,948 L812.071106,998.25 L812.071106,1098.75 L725.035553,1149 L638,1098.75 L638,998.25 L725.035553,948 Z M907.035553,948 L994.071106,998.25 L994.071106,1098.75 L907.035553,1149 L820,1098.75 L820,998.25 L907.035553,948 Z M1089.53555,948 L1176.13809,998.25 L1176.13809,1098.75 L1089.53555,1149 L1002.93301,1098.75 L1002.93301,998.25 L1089.53555,948 Z M1272.03555,948 L1359.07111,998.25 L1359.07111,1098.75 L1272.03555,1149 L1185,1098.75 L1185,998.25 L1272.03555,948 Z M1454.03555,948 L1541.07111,998.25 L1541.07111,1098.75 L1454.03555,1149 L1367,1098.75 L1367,998.25 L1454.03555,948 Z M360.535553,0 L447.138093,50.25 L447.138093,150.75 L360.535553,201 L273.933013,150.75 L273.933013,50.25 L360.535553,0 Z M178.035553,0 L265.071106,50.25 L265.071106,150.75 L178.035553,201 L91,150.75 L91,50.25 L178.035553,0 Z M543.035553,0 L630.071106,50.25 L630.071106,150.75 L543.035553,201 L456,150.75 L456,50.25 L543.035553,0 Z M725.035553,0 L812.071106,50.25 L812.071106,150.75 L725.035553,201 L638,150.75 L638,50.25 L725.035553,0 Z M907.035553,0 L994.071106,50.25 L994.071106,150.75 L907.035553,201 L820,150.75 L820,50.25 L907.035553,0 Z M1089.53555,0 L1176.13809,50.25 L1176.13809,150.75 L1089.53555,201 L1002.93301,150.75 L1002.93301,50.25 L1089.53555,0 Z M1272.03555,0 L1359.07111,50.25 L1359.07111,150.75 L1272.03555,201 L1185,150.75 L1185,50.25 L1272.03555,0 Z M1454.03555,0 L1541.07111,50.25 L1541.07111,150.75 L1454.03555,201 L1367,150.75 L1367,50.25 L1454.03555,0 Z M1545.03555,158 L1632.07111,208.25 L1632.07111,308.75 L1545.03555,359 L1458,308.75 L1458,208.25 L1545.03555,158 Z M1545.03555,790 L1632.07111,840.25 L1632.07111,940.75 L1545.03555,991 L1458,940.75 L1458,840.25 L1545.03555,790 Z" id="path-1"></path>
        <linearGradient x1="100%" y1="24.9254394%" x2="0%" y2="75.0745606%" id="linearGradient-3">
            <stop stop-color="#414345" offset="0%"></stop>
            <stop stop-color="#232526" offset="100%"></stop>
        </linearGradient>
    </defs>
    <g id="hexGrid_black" stroke="none" stroke-width="1" fill="none" fill-rule="evenodd">
        <g id="Rectangle" transform="translate(-99.535553, -49.000000)">
            <mask id="mask-2" fill="white">
                <use xlink:href="#path-1"></use>
            </mask>
            <use id="Mask" fill="#1F1C2C" xlink:href="#path-1"></use>
            <rect fill="url(#linearGradient-3)" mask="url(#mask-2)" x="99.5355531" y="49" width="1446" height="1024"></rect>
        </g>
    </g>
</svg>